<svg width="320" height="550" xmlns="http://www.w3.org/2000/svg">
  <text x="35" y="35" font-size="18">ebp--</text>
  <text x="265" y="35" font-size="18">--esp</text>
  <rect x="100" y="10" width="150" height="40" stroke="purple" fill="gray"/>
  <text x="125" y="35" font-size="18">4th old ebp</text>
  <rect x="100" y="50" width="150" height="40" stroke="purple" fill="none"/>
  <text x="125" y="75" font-size="18">a=2</text>
  <rect x="100" y="90" width="150" height="40" stroke="purple" fill="none"/>
  <text x="125" y="115" font-size="18">b=0</text>
  <rect x="100" y="130" width="150" height="40" stroke="purple" fill="gray"/>
  <text x="125" y="155" font-size="18">3rd old ebp</text>
  <rect x="100" y="170" width="150" height="40" stroke="purple" fill="none"/>
  <text x="125" y="195" font-size="18">a=2</text>
  <rect x="100" y="210" width="150" height="40" stroke="purple" fill="none"/>
  <text x="125" y="235" font-size="18">b=1</text>
  <rect x="100" y="250" width="150" height="40" stroke="purple" fill="gray"/>
  <text x="125" y="275" font-size="18">2nd old ebp</text>
  <rect x="100" y="290" width="150" height="40" stroke="purple" fill="none"/>
  <text x="125" y="315" font-size="18">a=2</text>
  <rect x="100" y="330" width="150" height="40" stroke="purple" fill="none"/>
  <text x="125" y="355" font-size="18">b=3</text>
  <rect x="100" y="370" width="150" height="40" stroke="purple" fill="gray"/>
  <text x="125" y="395" font-size="18">1st old ebp</text>
  <rect x="100" y="410" width="150" height="40" stroke="purple" fill="none"/>
  <text x="125" y="435" font-size="18">a=2</text>
  <rect x="100" y="450" width="150" height="40" stroke="purple" fill="none"/>
  <text x="125" y="475" font-size="18">b=3</text>
  <text x="82" y="510" font-size="20">Stack grows upwards</text>
</svg>